<svg class="svg-icon" style="width: 1em; height: 1em;vertical-align: middle;fill: currentColor;overflow: hidden;" viewBox="0 0 1024 1024" version="1.1" xmlns="http://www.w3.org/2000/svg"><path d="M145.50478 858.013176a26.816128 26.816128 0 0 1-20.812518-9.834486 510.318349 510.318349 0 0 1-42.528435-59.693044 27.044837 27.044837 0 1 1 46.187779-28.131204 449.413147 449.413147 0 0 0 38.06861 53.403547 27.147756 27.147756 0 0 1-3.544989 38.080045 28.096898 28.096898 0 0 1-17.370447 6.175142z m0 0"  /><path d="M511.885131 1023.998719a508.168484 508.168484 0 0 1-294.943101-93.541973 27.020823 27.020823 0 0 1 31.161598-44.152269 454.810679 454.810679 0 0 0 263.781503 83.570262c252.414667 0 457.852508-205.472148 457.852509-457.989734S764.299798 53.895271 511.885131 53.895271 54.158413 259.481774 54.158413 511.99936a456.457384 456.457384 0 0 0 18.399637 128.774591 27.037976 27.037976 0 0 1-51.894068 15.209147A513.062856 513.062856 0 0 1 0.194529 511.99936C0.194529 229.635252 229.80691 0 511.999486 0s511.804957 229.635252 511.804957 511.99936-229.658123 511.99936-511.919312 511.999359z m0 0"  /><path d="M387.273043 524.063758h145.573266v36.181761h-145.573266z m0 100.631952h207.873593v39.509476H387.273043z m172.755329-253.478163l71.7117 64.255788 81.900686-90.877514-71.7117-64.278659z m131.770679-143.697853l-20.778211 22.870898 71.711701 64.6789 20.789646-22.870898zM526.350974 482.884706L597.650999 456.274416l-58.629547-48.463433z m0 0"  /><path d="M691.604648 427.262682v304.44596a33.162802 33.162802 0 0 1-33.219979 33.99759H344.41298a33.231415 33.231415 0 0 1-33.219979-33.231415v-440.950915a33.231415 33.231415 0 0 1 33.219979-33.231415h261.471542l46.668068-50.739087H344.41298a83.959067 83.959067 0 0 0-83.936196 83.970502v440.950915a83.947631 83.947631 0 0 0 83.936196 83.970502h313.971689a83.959067 83.959067 0 0 0 83.947631-83.970502v-360.216645z m0 0"  /></svg>